<svg width="58" height="58" viewBox="0 0 58 58" fill="none" xmlns="http://www.w3.org/2000/svg">
<path d="M19.8106 35.6336C20.3768 36.0376 21.0551 36.2544 21.7506 36.2537C22.4461 36.2531 23.1239 36.035 23.6894 35.63C24.2546 35.2075 24.6842 34.6293 24.9255 33.9661L26.1834 30.0983C26.4851 29.187 26.9955 28.3588 27.674 27.6797C28.3524 27.0007 29.1801 26.4895 30.0911 26.1869L34.0279 24.9073C34.6881 24.6705 35.2572 24.2322 35.6547 23.6544C36.0523 23.0765 36.2582 22.3884 36.2433 21.6871C36.2285 20.9859 35.9937 20.3071 35.5721 19.7466C35.1505 19.1861 34.5634 18.7722 33.8937 18.5635L30.0186 17.3093C29.1067 17.008 28.2778 16.4978 27.598 15.8193C26.9183 15.1409 26.4065 14.3129 26.1036 13.4015L24.824 9.47202C24.5918 8.82312 24.1642 8.2621 23.6001 7.86613C23.036 7.47016 22.3631 7.25867 21.6739 7.26077C20.9748 7.2578 20.2925 7.47458 19.7233 7.88047C19.1541 8.28637 18.7269 8.86087 18.502 9.52277L17.2115 13.474C16.9084 14.3584 16.4093 15.1628 15.7514 15.8269C15.0935 16.4911 14.2939 16.9978 13.4125 17.3093L9.48299 18.5816C8.82653 18.8136 8.25879 19.2446 7.8589 19.8146C7.459 20.3845 7.24686 21.065 7.25205 21.7613C7.25723 22.4575 7.47949 23.1347 7.88783 23.6987C8.29618 24.2626 8.87027 24.6851 9.53012 24.9073L13.398 26.1651C14.3112 26.4702 15.1408 26.9839 15.8209 27.6653C16.5011 28.3468 17.0132 29.1773 17.3166 30.091L18.5926 34.006C18.821 34.6585 19.2487 35.2276 19.8142 35.63M14.5254 22.7033L11.426 21.7426L14.558 20.724C15.9884 20.2312 17.285 19.4135 18.3461 18.3351C19.4046 17.2476 20.2021 15.9426 20.6806 14.5071L21.6412 11.3933L22.6562 14.518C23.137 15.9685 23.9506 17.2863 25.032 18.3658C26.1135 19.4454 27.4327 20.2567 28.884 20.7349L32.074 21.71L28.9565 22.725C27.504 23.2043 26.1841 24.0173 25.1025 25.0988C24.021 26.1803 23.208 27.5003 22.7287 28.9528L21.7681 32.0594L20.7567 28.9455C20.2786 27.4906 19.4657 26.1683 18.3834 25.0847C17.3011 24.0012 15.9797 23.1831 14.5254 22.7033ZM38.1857 50.2098C38.678 50.5598 39.2673 50.7473 39.8714 50.7463C40.4801 50.7401 41.0718 50.545 41.5647 50.1878C42.0577 49.8306 42.4274 49.3291 42.6227 48.7525L43.5217 45.9903C43.7139 45.4175 44.0401 44.8919 44.4642 44.4641C44.8884 44.0364 45.414 43.7138 45.9867 43.5253L48.7852 42.6118C49.3641 42.4133 49.8653 42.0368 50.2172 41.5362C50.569 41.0356 50.7536 40.4365 50.7443 39.8247C50.735 39.2129 50.5325 38.6196 50.1656 38.1299C49.7988 37.6402 49.2864 37.279 48.7019 37.0981L45.9324 36.1955C45.3598 36.0037 44.8393 35.682 44.4117 35.2557C43.9841 34.8293 43.6609 34.3098 43.4674 33.7378L42.5539 30.932C42.3573 30.3558 41.9844 29.8561 41.488 29.5036C40.9916 29.1512 40.3969 28.9639 39.7881 28.9683C39.1793 28.9727 38.5874 29.1686 38.0961 29.5282C37.6049 29.8878 37.2393 30.3929 37.0511 30.9719L36.1557 33.7341C35.9711 34.302 35.6578 34.8196 35.2403 35.2465C34.8228 35.6734 34.3123 35.9982 33.7487 36.1955L30.9357 37.1126C30.5099 37.2607 30.1245 37.506 29.8101 37.829C29.4956 38.152 29.2608 38.5439 29.1243 38.9735C28.9878 39.4032 28.9533 39.8587 29.0236 40.304C29.0939 40.7493 29.267 41.1721 29.5292 41.5388C29.8881 42.0463 30.3956 42.4269 30.9792 42.6263L33.7451 43.5216C34.3196 43.7153 34.8414 44.0397 35.2691 44.4694C35.6969 44.899 36.019 45.4221 36.2101 45.9975L37.1272 48.8033C37.3258 49.3705 37.6957 49.8619 38.1857 50.2098ZM34.8725 40.0851L34.2272 39.8713L34.8942 39.6393C35.9935 39.2587 36.9904 38.6301 37.8077 37.8022C38.6249 36.9743 39.2405 35.9693 39.6067 34.8651L39.817 34.2199L40.0345 34.876C40.4046 35.987 41.0284 36.9965 41.8564 37.8246C42.6845 38.6526 43.694 39.2764 44.805 39.6465L45.5119 39.8749L44.8594 40.0888C43.7457 40.4602 42.7342 41.0865 41.9054 41.9179C41.0766 42.7493 40.4533 43.7627 40.0852 44.8774L39.8714 45.5335L39.6611 44.8774C39.295 43.7594 38.6712 42.7432 37.84 41.9108C37.0088 41.0783 35.9935 40.4529 34.8761 40.0851" fill="white"/>
</svg>
