<svg width="17" height="17" viewBox="0 0 17 17" fill="none" xmlns="http://www.w3.org/2000/svg">
<path d="M2.71527 2.83341H5.89569L6.92064 5.39616L5.27377 6.49408C5.17679 6.55879 5.09728 6.64643 5.04229 6.74924C4.9873 6.85204 4.95854 6.96683 4.95856 7.08341C4.96069 7.15 4.95856 7.08412 4.95856 7.08412V7.099C4.95892 7.13068 4.96033 7.16233 4.96281 7.19391C4.96659 7.25247 4.97485 7.33039 4.9876 7.42766C5.01523 7.61891 5.06835 7.88241 5.17177 8.19266C5.38002 8.816 5.78802 9.62279 6.58277 10.4175C7.37752 11.2123 8.18431 11.6203 8.80694 11.8285C9.11789 11.932 9.38069 11.9844 9.57335 12.0127C9.68203 12.0285 9.79154 12.038 9.90131 12.041L9.91052 12.0417H9.91619C9.91619 12.0417 9.99552 12.0375 9.91689 12.0417C10.0484 12.0417 10.1773 12.005 10.2891 11.9358C10.401 11.8666 10.4914 11.7677 10.5501 11.65L11.0247 10.7009L14.1669 11.225V14.285C12.6716 14.5011 8.63269 14.7143 5.45935 11.541C2.28602 8.36762 2.49852 4.328 2.71527 2.83341ZM6.42694 7.42766L7.70689 6.57483C7.9773 6.39447 8.17745 6.12661 8.27379 5.81618C8.37013 5.50575 8.3568 5.17164 8.23602 4.86987L7.21106 2.30712C7.10588 2.04426 6.92435 1.81895 6.6899 1.66025C6.45544 1.50154 6.17881 1.41673 5.89569 1.41675H2.67844C2.03456 1.41675 1.42894 1.86371 1.32339 2.56212C1.08256 4.15021 0.756019 8.84079 4.45777 12.5425C8.15952 16.2443 12.8501 15.917 14.4382 15.6769C15.1366 15.5707 15.5836 14.9657 15.5836 14.3219V11.225C15.5836 10.8897 15.4647 10.5652 15.2479 10.3093C15.0312 10.0534 14.7307 9.88266 14.3999 9.8275L11.2578 9.30404C10.9589 9.25416 10.6519 9.3014 10.3819 9.43883C10.1119 9.57626 9.89306 9.79665 9.75752 10.0676L9.51244 10.5585C9.42582 10.537 9.34005 10.5121 9.25531 10.4841C8.81614 10.3382 8.20627 10.0379 7.58435 9.41596C6.96244 8.79404 6.6621 8.18416 6.51619 7.74429C6.48179 7.64018 6.45224 7.53452 6.42764 7.42766H6.42694Z" fill="#2F3E56"/>
</svg>
